# xmcd
#
# Track frame offsets: 
#        150
#        16230
#        35352
#        55732
#        72874
#        91933
#        111924
#        132849
#        151301
#        167247
#        181805
#
# Disc length: 2673 seconds
#
# Revision: 0
# Processed by: cddbd v1.5.2PL0 Copyright (c) Steve Scherf et al.
# Submitted via: ExactAudioCopyFreeDBPlugin 1.0
#
DISCID=850a6f0b
DTITLE=Jim Mize - Release it to the Sky
DYEAR=2007
DGENRE=Blues
TTITLE0=After the Storm
TTITLE1=Acadian Lullaby
TTITLE2=Promises We Keep
TTITLE3=I'm Your Fool
TTITLE4=Disappear in America
TTITLE5=Release it to the Sky
TTITLE6=If Love Could Be
TTITLE7=She's Gone
TTITLE8=December Moon
TTITLE9=Close to You
TTITLE10=Delta Land
EXTD=
EXTT0=
EXTT1=
EXTT2=
EXTT3=
EXTT4=
EXTT5=
EXTT6=
EXTT7=
EXTT8=
EXTT9=
EXTT10=
PLAYORDER=
